<svg aria-hidden="true" style="position: absolute; width: 0; height: 0; overflow: hidden;" version="1.1" xmlns="http://www.w3.org/2000/svg" xmlns:xlink="http://www.w3.org/1999/xlink">
<defs>
<symbol id="icon-icon-svg1" viewBox="0 0 32 32">
<path d="M4.905 3.765h-4.905v-3.765h8.271l0.845 7.529h21.002v11.178l-23.022 4.576-2.19-19.519zM29.176 32c-1.559 0-2.824-1.264-2.824-2.824s1.264-2.824 2.824-2.824c1.559 0 2.824 1.264 2.824 2.824s-1.264 2.824-2.824 2.824zM10.353 32c-1.559 0-2.824-1.264-2.824-2.824s1.264-2.824 2.824-2.824c1.559 0 2.824 1.264 2.824 2.824s-1.264 2.824-2.824 2.824z"></path>
</symbol>
<symbol id="icon-icon-svg2" viewBox="0 0 32 32">
<path fill="#3f3b3d" style="fill: var(--color1, #3f3b3d)" d="M0 16c0-8.837 7.163-16 16-16v0c8.837 0 16 7.163 16 16v0c0 8.837-7.163 16-16 16v0c-8.837 0-16-7.163-16-16v0z"></path>
<path fill="#fff" style="fill: var(--color2, #fff)" d="M20.383 16.83v2.12c0 1.139-0.102 2.101-0.305 2.884s-0.497 1.413-0.879 1.891c-0.382 0.477-0.843 0.824-1.385 1.041-0.535 0.21-1.139 0.315-1.814 0.315-0.535 0-1.028-0.067-1.48-0.201s-0.859-0.347-1.222-0.64c-0.356-0.299-0.662-0.688-0.917-1.165s-0.449-1.057-0.582-1.738c-0.134-0.681-0.2-1.477-0.2-2.387v-2.12c0-1.139 0.102-2.094 0.306-2.865 0.21-0.77 0.506-1.388 0.888-1.852 0.382-0.471 0.84-0.808 1.375-1.012 0.541-0.204 1.146-0.306 1.814-0.306 0.541 0 1.038 0.067 1.49 0.2 0.458 0.127 0.866 0.334 1.222 0.621 0.357 0.28 0.659 0.656 0.907 1.127 0.255 0.465 0.449 1.034 0.582 1.709s0.201 1.467 0.201 2.378zM18.607 19.236v-2.702c0-0.624-0.038-1.171-0.114-1.642-0.070-0.477-0.175-0.885-0.315-1.222s-0.318-0.611-0.535-0.821c-0.21-0.21-0.455-0.363-0.735-0.458-0.274-0.102-0.582-0.153-0.926-0.153-0.42 0-0.793 0.080-1.117 0.239-0.325 0.153-0.598 0.398-0.821 0.735-0.216 0.337-0.382 0.78-0.497 1.327s-0.172 1.213-0.172 1.996v2.702c0 0.624 0.035 1.175 0.105 1.652 0.076 0.477 0.188 0.891 0.334 1.241 0.146 0.344 0.325 0.627 0.535 0.85s0.452 0.388 0.726 0.497c0.28 0.102 0.589 0.153 0.926 0.153 0.433 0 0.812-0.083 1.136-0.248s0.595-0.423 0.812-0.773c0.223-0.356 0.388-0.812 0.497-1.366 0.108-0.56 0.162-1.228 0.162-2.005z"></path>
</symbol>
<symbol id="icon-icon-svg3" viewBox="0 0 128 32">
<path d="M22.348 24.356h-10.702c-0.315 0-0.525-0.089-0.734-0.356l-7.764-11.467c-0.105-0.178-0.105-0.444 0-0.711l7.764-11.467c0.21-0.356 0.734-0.444 1.154-0.267s0.525 0.622 0.315 0.978l-7.554 11.111 7.344 10.756h10.282c0.42 0 0.839 0.356 0.839 0.711s-0.42 0.711-0.944 0.711z"></path>
<path d="M14.269 20.8c-0.21 0-0.525-0.089-0.735-0.356l-5.351-7.911c-0.105-0.178-0.105-0.444 0-0.711l7.869-11.467c0.105-0.178 0.42-0.356 0.734-0.356h15.633c0.42 0 0.839 0.356 0.839 0.711s-0.42 0.711-0.839 0.711h-15.213l-7.344 10.756 5.141 7.556c0.21 0.356 0.105 0.711-0.315 0.978-0.105 0.089-0.21 0.089-0.42 0.089z"></path>
<path d="M42.702 16.711c-0.21 0-0.525-0.089-0.734-0.356l-7.449-11.111h-14.688l-5.141 7.556c-0.21 0.355-0.734 0.444-1.154 0.267s-0.525-0.622-0.315-0.978l5.351-7.911c0.105-0.178 0.42-0.356 0.734-0.356h15.633c0.315 0 0.525 0.089 0.734 0.356l7.764 11.467c0.21 0.356 0.105 0.711-0.315 0.978-0.105 0-0.21 0.089-0.42 0.089z"></path>
<path d="M32.42 32c-0.105 0-0.21-0.089-0.42-0.089-0.42-0.178-0.525-0.622-0.315-0.978l7.554-11.111-7.344-10.755h-10.177c-0.42 0-0.839-0.356-0.839-0.711s0.42-0.711 0.839-0.711h10.702c0.315 0 0.525 0.089 0.734 0.356l7.764 11.467c0.105 0.178 0.105 0.444 0 0.711l-7.764 11.467c-0.105 0.178-0.42 0.355-0.734 0.355z"></path>
<path d="M27.279 31.911h-15.633c-0.42 0-0.839-0.355-0.839-0.711s0.42-0.711 0.839-0.711h15.213l7.344-10.755-5.141-7.556c-0.21-0.355-0.105-0.711 0.315-0.978 0.42-0.178 0.839-0.089 1.154 0.267l5.351 7.911c0.105 0.178 0.105 0.445 0 0.711l-7.869 11.467c-0.105 0.267-0.42 0.355-0.734 0.355z"></path>
<path d="M24.866 28.089h-15.738c-0.315 0-0.525-0.089-0.734-0.355l-7.764-11.378c-0.21-0.355-0.105-0.8 0.21-0.978 0.42-0.178 0.839-0.089 1.154 0.267l7.554 11.111h14.688l5.141-7.556c0.21-0.356 0.735-0.445 1.154-0.267s0.525 0.622 0.315 0.978l-5.351 7.822c-0.21 0.267-0.42 0.355-0.63 0.355z"></path>
<path d="M71.029 13.6h-1.993c-0.525-1.333-1.364-2.4-2.623-3.2-1.259-0.889-2.728-1.333-4.511-1.333-2.308 0-4.197 0.711-5.666 2.044s-2.203 3.111-2.203 5.333c0 2.222 0.734 3.911 2.203 5.333s3.252 2.044 5.666 2.044c1.679 0 3.252-0.444 4.511-1.333 1.154-0.889 2.098-1.956 2.623-3.2h4.302c-0.629 2.133-1.993 3.911-3.882 5.333s-4.406 2.133-7.449 2.133c-3.777 0-6.715-0.978-8.918-3.022-2.308-1.956-3.462-4.444-3.462-7.378s1.154-5.333 3.462-7.378c2.203-1.956 5.246-3.022 8.918-3.022 3.043 0 5.561 0.711 7.449 2.133 1.993 1.422 3.252 3.2 3.882 5.333h-2.308v0.178z"></path>
<path d="M80.892 4.178v22.311h-4.197v-22.311h4.197z"></path>
<path d="M87.397 12.178c1.784-1.6 4.197-2.4 7.134-2.4s5.246 0.8 7.135 2.4c1.888 1.6 2.727 3.644 2.727 6.044v0.445c0 0.178-0.104 0.355-0.104 0.444h-15.214c0.21 1.244 0.734 2.222 1.574 3.022 1.049 0.978 2.518 1.511 4.302 1.511 1.049 0 1.993-0.178 2.623-0.622 0.734-0.355 1.364-0.889 1.784-1.511h4.722c-0.735 1.511-1.889 2.756-3.463 3.644s-3.567 1.333-5.77 1.333c-3.147 0-5.561-0.8-7.344-2.4-1.888-1.6-2.728-3.645-2.728-6.044 0-2.311 0.944-4.267 2.623-5.867zM100.092 16.889c-0.21-1.067-0.63-1.956-1.364-2.667-0.944-0.978-2.308-1.511-4.092-1.511s-3.148 0.444-4.092 1.511c-0.734 0.711-1.154 1.6-1.364 2.667h10.912z"></path>
<path d="M109.744 12.178c1.889-1.6 4.302-2.4 7.449-2.4s5.666 0.8 7.45 2.4c1.888 1.6 2.727 3.644 2.727 6.044s-0.839 4.533-2.727 6.044c-1.784 1.6-4.302 2.4-7.45 2.4h-0.104c-3.148 0-5.666-0.8-7.45-2.4-1.888-1.6-2.728-3.645-2.728-6.044 0.105-2.489 1.050-4.444 2.833-6.044zM121.495 14.222c-1.049-0.978-2.518-1.6-4.302-1.6s-3.147 0.533-4.301 1.6c-1.049 0.978-1.679 2.4-1.679 4s0.525 2.933 1.679 4c1.049 0.978 2.518 1.511 4.301 1.511 1.784 0 3.253-0.444 4.302-1.511 1.049-0.978 1.679-2.4 1.679-4s-0.63-2.933-1.679-4z"></path>
</symbol>
<symbol id="icon-icon-svg4" viewBox="0 0 89 32">
<path d="M16.823 19.111c-0.651 0.355-0.977 0.978-0.977 1.689 0 0.622 0.326 1.155 0.868 1.511 0.651 0.355 1.411 0.622 2.496 0.622 1.628 0 2.822-0.355 3.69-1.067s1.302-1.6 1.411-2.756v-0.533h-4.776c-1.194 0-2.062 0.178-2.713 0.533z"></path>
<path d="M54.051 19.111c-0.651 0.355-0.977 0.978-0.977 1.689 0 0.622 0.326 1.155 0.868 1.511 0.651 0.355 1.411 0.622 2.496 0.622 1.628 0 2.822-0.355 3.69-1.067s1.302-1.6 1.411-2.756v-0.533h-4.776c-1.194 0-2.062 0.178-2.713 0.533z"></path>
<path d="M88.566 14.756c0-3.911-3.799-6.933-8.466-6.933-0.434 0-0.977 0-1.411 0.089 0.109-0.267 0.109-0.622 0.109-0.889 0-3.2-3.256-5.778-7.055-5.778-3.256 0-6.078 1.778-6.838 4.267-1.194-0.267-2.388-0.356-3.582-0.356s-2.388 0.178-3.582 0.356c-0.651-1.156-2.171-1.956-3.799-1.956-0.977 0-1.845 0.267-2.605 0.711-0.543-2.489-3.148-4.267-6.187-4.267-3.148 0-5.752 1.867-6.187 4.356-1.845-1.244-4.341-1.956-6.838-1.956-3.148 0-5.97 1.067-7.923 2.844-1.411-0.267-2.822-0.533-4.341-0.533-2.822 0-5.427 0.533-7.706 1.6-1.085-0.444-2.279-0.711-3.582-0.711-4.45 0-8.032 3.022-8.032 6.578 0 2.044 1.085 3.822 2.822 4.978 0 0.355-0.109 0.8-0.109 1.244-0.109 7.556 7.38 13.6 16.606 13.6 2.822 0 5.427-0.533 7.598-1.511 1.411 0.622 3.148 0.978 4.884 0.978 3.69 0 6.729-1.6 8.574-4 1.52 1.333 3.582 2.133 5.861 2.133 1.52 0 3.039-0.356 4.233-0.978 2.605 1.867 6.078 3.022 9.66 3.022 3.473 0 6.621-0.978 9.117-2.667 1.519 1.244 3.582 1.956 5.969 1.956 4.776 0 8.466-3.111 8.466-6.933 0-1.067-0.326-2.044-0.76-2.933 3.039-0.978 5.101-3.467 5.101-6.311zM30.065 25.244h-2.062c-1.194 0-2.062-0.178-2.605-0.622s-0.76-0.978-0.76-1.778c-1.411 1.689-3.365 2.578-5.97 2.578-2.062 0-3.69-0.355-4.884-1.155s-1.845-1.867-1.845-3.2c0-1.511 0.651-2.667 1.954-3.556 1.302-0.8 3.256-1.244 5.752-1.244h4.559v-0.889c0-0.8-0.326-1.511-1.085-1.956s-1.737-0.711-2.93-0.711c-1.085 0-2.062 0.178-2.713 0.622-0.76 0.356-1.194 0.889-1.302 1.6h-3.799c0.217-1.511 0.977-2.667 2.388-3.467s3.256-1.245 5.535-1.245c2.388 0 4.341 0.444 5.644 1.422 1.302 0.889 1.954 2.311 1.954 4v5.778c0 0.711 0.434 1.067 1.194 1.067l0.977-0.089c0 0.089 0 2.844 0 2.844zM41.352 13.333h-1.736c-1.628 0-2.714 0.444-3.473 1.245s-1.085 1.956-1.085 3.2v7.378h-3.799v-14.756h3.473l0.434 2.222c0.543-0.711 1.194-1.244 2.062-1.6s1.954-0.622 3.365-0.622h0.868c-0.109 0-0.109 2.933-0.109 2.933zM46.888 25.244h-3.799v-14.844h3.799v14.844zM46.671 7.644c-0.434 0.356-0.977 0.533-1.628 0.533s-1.194-0.178-1.628-0.533c-0.434-0.356-0.651-0.8-0.651-1.333s0.217-0.978 0.651-1.244c0.434-0.356 0.977-0.533 1.628-0.533 0.651-0.089 1.194 0.089 1.628 0.533 0.434 0.356 0.651 0.8 0.651 1.333s-0.217 0.889-0.651 1.244zM67.184 25.244h-2.062c-1.194 0-2.062-0.178-2.605-0.622s-0.76-0.978-0.76-1.778c-1.411 1.689-3.365 2.578-5.969 2.578-2.062 0-3.69-0.355-4.884-1.155s-1.845-1.867-1.845-3.2c0-1.511 0.651-2.667 1.954-3.556 1.302-0.8 3.256-1.244 5.752-1.244h4.559v-0.889c0-0.8-0.326-1.511-1.085-1.956s-1.737-0.711-2.931-0.711c-1.085 0-2.062 0.178-2.713 0.622-0.76 0.356-1.194 0.889-1.302 1.6h-3.799c0.217-1.511 0.977-2.667 2.388-3.467s3.256-1.245 5.535-1.245c2.388 0 4.341 0.444 5.644 1.422 1.302 0.889 1.954 2.311 1.954 4v5.778c0 0.711 0.434 1.067 1.194 1.067l0.977-0.089c0 0.089 0 2.844 0 2.844zM73.045 25.244h-3.799v-20.267h3.799v20.267z"></path>
</symbol>
<symbol id="icon-icon-svg5" viewBox="0 0 128 32">
<path d="M3.873 0.711l6.761 23.289 5.973-20.978 6.105 21.067 6.564-23.378h1.838l-8.73 30.933h-1.116l-5.579-19.2-5.383 19.111h-1.313l-8.862-30.844h3.742z"></path>
<path d="M38.925 0l10.634 31.289h-3.873l-3.479-10.222h-9.649l-3.545 10.222h-1.904l10.896-31.289h0.919zM33.214 19.111h8.336l-4.135-12-4.201 12z"></path>
<path d="M53.038 0.711h3.742v28.622h11.356v1.956h-15.163v-30.578h0.066z"></path>
<path d="M105.223 0.711v1.956h-11.882v11.022h7.942v1.956h-7.942v13.689h11.882v1.956h-15.754v-30.578h15.754z"></path>
<path d="M109.227 0.711h2.1l14.769 22.4h0.132v-22.4h1.641v31.289h-0.788l-16.016-24.8h-0.132v24.178h-1.772l0.066-30.667z"></path>
<path d="M84.939 9.422c-0.656-1.867-1.575-3.644-2.888-5.067-1.116-1.244-2.56-2.222-4.201-2.844s-3.676-0.889-6.039-0.889h-7.549v24.178h3.873v-21.867h4.070c1.379 0 2.626 0.267 3.676 0.978 1.182 0.622 2.1 1.511 2.888 2.667s1.444 2.578 1.904 4.089c0.46 1.6 0.656 3.378 0.656 5.245 0 2.133-0.197 4-0.722 5.689s-1.182 3.022-1.969 4.089c-0.853 1.067-1.838 1.956-2.954 2.578-1.181 0.622-2.297 0.889-3.61 0.889h-0.656v2.222h1.247c2.1 0 4.004-0.355 5.579-1.244 1.575-0.8 2.954-1.956 4.135-3.378 1.116-1.333 1.969-3.022 2.56-4.978 0.591-1.867 0.853-3.911 0.853-6.044 0.066-2.311-0.197-4.356-0.853-6.311z"></path>
</symbol>
<symbol id="icon-icon-svg6" viewBox="0 0 128 32">
<path d="M44.883 10.755c0.416 0 0.748 0 0.831 0.089s0.083 0.178 0.083 0.533c0 0.178 0.083 0.444 0.166 0.444s0.332-0.089 0.748-0.444c0.333-0.178 0.582-0.444 1.081-0.533 0.416-0.089 0.831-0.178 1.247-0.178 0.831 0 1.579 0.356 2.244 0.978 0.499 0.444 0.914 1.067 1.247 1.867s0.416 1.511 0.416 2.4c0 1.867-0.582 3.2-1.745 4.444-0.914 0.889-1.829 1.422-2.909 1.422-0.582 0-1.081-0.089-1.745-0.444-0.083-0.089-0.166-0.089-0.333-0.089s-0.333 0.178-0.333 0.622c0 0.533 0.166 0.978 0.499 1.156s0.499 0.444 0.582 0.444c0.083 0.089 0.083 0.178 0.083 0.445 0 0.444-0.166 0.8-0.748 0.978-0.416 0.178-1.081 0.356-1.912 0.356-1.413 0-2.743-0.356-3.823-0.978-0.499-0.355-0.831-0.622-0.831-1.155 0-0.178 0-0.356 0.083-0.445s0.166-0.178 0.499-0.355c0.333-0.178 0.582-0.445 0.582-0.978 0.083-0.445 0.083-1.689 0.166-3.911 0-1.689-0.083-2.667-0.166-2.933 0-0.089-0.083-0.089-0.083-0.089s-0.083-0.178-0.416-0.178c-0.166 0-0.416-0.089-0.499-0.356-0.083-0.178-0.166-0.355-0.166-0.622s0.083-0.533 0.333-0.8c0.166-0.178 0.499-0.444 0.914-0.622 1.662-0.622 2.992-1.067 3.907-1.067zM45.88 14.755l-0.083 2.933c0 0.089 0 0.178 0 0.356s0.083 0.444 0.333 0.533c0.166 0.089 0.416 0.178 0.748 0.178 0.914 0 1.413-0.8 1.413-2.4 0-1.067-0.166-1.689-0.582-2.133-0.166-0.178-0.499-0.444-0.831-0.444-0.665 0-0.997 0.356-0.997 0.978z"></path>
<path d="M62.836 16.533h-4.655c-0.166 0-0.332 0.089-0.332 0.356 0 0.444 0.166 0.889 0.748 1.333s0.997 0.622 1.496 0.622c0.333 0 0.748-0.089 1.081-0.178 0.416-0.089 0.748-0.355 0.997-0.444 0.166-0.178 0.416-0.178 0.499-0.178 0.166 0 0.333 0.089 0.499 0.356 0.166 0.178 0.166 0.444 0.166 0.8 0 0.533-0.333 0.978-0.914 1.511-0.997 0.889-2.327 1.333-3.657 1.333-1.413 0-2.493-0.444-3.574-1.333-0.499-0.445-0.831-0.978-1.081-1.511-0.416-0.8-0.582-1.6-0.582-2.578 0-1.156 0.332-2.311 0.997-3.2 0.582-0.889 1.33-1.422 2.244-1.867 0.748-0.355 1.413-0.444 2.244-0.444 1.33 0 2.327 0.444 3.242 1.155 0.416 0.444 0.831 0.889 1.081 1.422 0.332 0.622 0.499 1.155 0.499 1.689 0 0.444-0.083 0.889-0.333 1.155-0.166-0.178-0.333 0-0.665 0zM58.431 14.578h0.997c0.416 0 0.582-0.178 0.582-0.622s-0.083-0.622-0.333-0.978c-0.166-0.178-0.499-0.356-0.831-0.356-0.416 0-0.748 0.089-0.914 0.444s-0.333 0.533-0.333 0.889c0 0.178 0 0.356 0.083 0.444 0.333 0.178 0.499 0.178 0.748 0.178z"></path>
<path d="M70.234 13.511v3.555c0 0.445 0.083 0.8 0.332 1.067 0.166 0.355 0.415 0.444 0.748 0.444s0.582-0.089 0.997-0.444c0.166 0 0.332 0 0.416 0 0.166 0 0.332 0.089 0.416 0.355 0.083 0.178 0.166 0.445 0.166 0.622 0 0.444-0.166 0.889-0.748 1.333-0.914 0.889-2.161 1.333-3.408 1.333-1.081 0-1.912-0.355-2.493-0.978s-0.997-1.511-0.997-2.578v-4.978c0-0.178 0-0.178-0.083-0.356 0 0-0.083-0.089-0.332-0.089h-0.997c-0.166 0-0.333 0-0.416-0.089s-0.083-0.178-0.083-0.444v-0.444c0-0.178 0.083-0.356 0.166-0.444l4.738-3.111c0.083-0.089 0.332-0.089 0.416-0.089h0.831c0.166 0 0.332 0 0.332 0.089 0.083 0.089 0.083 0.178 0.083 0.444v1.422c0 0.178 0 0.355 0.083 0.444s0.166 0.089 0.416 0.089h1.829c0.166 0 0.416 0 0.499 0.089s0.083 0.356 0.083 0.622v0.622c0 0.355 0 0.533-0.083 0.8-0.083 0.089-0.332 0.178-0.499 0.178h-1.829c-0.166 0-0.332 0-0.416 0.089-0.166 0.089-0.166 0.178-0.166 0.444z"></path>
<path d="M77.797 10.667c0.332 0 0.914 0.089 1.579 0.178 0.166 0 0.332 0 0.416 0s0.332-0.089 0.748-0.178c0.166-0.089 0.332-0.089 0.416-0.089 0.332 0 0.582 0.178 0.914 0.622 0.332 0.355 0.499 0.622 0.582 1.067 0.166 0.444 0.166 0.8 0.166 1.067 0 0.356-0.083 0.533-0.332 0.8-0.166 0.178-0.416 0.356-0.748 0.356-0.166 0-0.416-0.089-0.582-0.178s-0.499-0.444-0.914-0.8c-0.416-0.444-0.831-0.622-0.997-0.622s-0.332 0.089-0.499 0.178c-0.083 0.089-0.166 0.356-0.166 0.533 0 0.355 0.332 0.622 0.914 0.978 1.081 0.533 1.995 1.067 2.66 1.689 0.499 0.533 0.831 1.156 0.831 1.956 0 0.978-0.416 1.867-1.247 2.489-0.748 0.533-1.496 0.889-2.493 0.889-0.332 0-0.748 0-1.413-0.089-0.665-0.178-1.081-0.178-1.164-0.178s-0.166 0-0.332 0c-0.166 0-0.332 0-0.416 0-0.332 0-0.582-0.089-0.748-0.178-0.332-0.178-0.499-0.622-0.831-1.333-0.166-0.533-0.332-1.067-0.332-1.422 0-0.622 0.166-0.978 0.748-0.978 0.166 0 0.416 0.089 0.499 0.178 0.166 0.089 0.499 0.444 0.997 1.067 0.332 0.356 0.499 0.533 0.748 0.622 0.166 0.089 0.416 0.178 0.582 0.178s0.416-0.089 0.499-0.178 0.166-0.356 0.166-0.533c0-0.355-0.332-0.622-0.831-0.889-1.081-0.533-1.829-1.155-2.327-1.689-0.499-0.622-0.748-1.333-0.748-2.044 0-0.889 0.166-1.6 0.748-2.133 0.665-0.889 1.662-1.333 2.909-1.333z"></path>
<path d="M88.353 10.755c0.415 0 0.748 0 0.831 0.089s0.083 0.178 0.083 0.533c0 0.178 0.083 0.444 0.166 0.444s0.332-0.089 0.748-0.444c0.332-0.178 0.582-0.444 1.081-0.533 0.415-0.089 0.831-0.178 1.247-0.178 0.831 0 1.579 0.356 2.244 0.978 0.499 0.444 0.914 1.067 1.247 1.867s0.416 1.511 0.416 2.4c0 1.867-0.582 3.2-1.746 4.444-0.914 0.889-1.829 1.422-2.909 1.422-0.582 0-1.081-0.089-1.746-0.444-0.083-0.089-0.166-0.089-0.332-0.089s-0.332 0.178-0.332 0.622c0 0.533 0.166 0.978 0.499 1.156s0.499 0.444 0.582 0.444c0.083 0.089 0.083 0.178 0.083 0.445 0 0.444-0.166 0.8-0.748 0.978-0.415 0.178-1.081 0.356-1.912 0.356-1.413 0-2.743-0.356-3.823-0.978-0.499-0.355-0.831-0.622-0.831-1.155 0-0.178 0-0.356 0.083-0.445s0.166-0.178 0.499-0.355c0.332-0.178 0.582-0.445 0.582-0.978 0.083-0.445 0.083-1.689 0.166-3.911 0-1.689-0.083-2.667-0.166-2.933 0-0.089-0.083-0.089-0.083-0.089s-0.083-0.178-0.332-0.178c-0.166 0-0.416-0.089-0.499-0.356-0.083-0.178-0.166-0.355-0.166-0.622s0.083-0.533 0.332-0.8c0.166-0.178 0.499-0.444 0.914-0.622 1.662-0.622 2.826-1.067 3.823-1.067zM89.351 14.755l-0.083 2.933c0 0.089 0 0.178 0 0.356s0.083 0.444 0.332 0.533c0.166 0.089 0.416 0.178 0.748 0.178 0.914 0 1.413-0.8 1.413-2.4 0-1.067-0.166-1.689-0.582-2.133-0.166-0.178-0.499-0.444-0.831-0.444-0.665 0-0.997 0.356-0.997 0.978z"></path>
<path d="M102.732 12.8v3.467c0 1.511 0 2.4 0.084 2.578 0 0.178 0.166 0.445 0.498 0.533 0.167 0.089 0.416 0.178 0.499 0.355 0.083 0.089 0.083 0.178 0.083 0.445 0 0.178-0.083 0.444-0.166 0.622-0.166 0.178-0.416 0.355-0.582 0.444-0.499 0.089-1.33 0.178-2.41 0.178-1.33 0-2.245-0.089-2.743-0.356-0.166-0.089-0.416-0.178-0.582-0.444-0.166-0.178-0.166-0.444-0.166-0.622s0-0.356 0.083-0.445c0.083-0.089 0.332-0.178 0.499-0.355 0.332-0.089 0.416-0.445 0.499-0.978 0.083-0.978 0.166-2.311 0.166-4s0-2.844-0.083-3.378c-0.083-0.533-0.332-0.889-0.748-1.067-0.332-0.178-0.499-0.356-0.582-0.444s-0.166-0.178-0.166-0.444c0-0.356 0.166-0.622 0.499-0.889 0.332-0.178 0.831-0.533 1.496-0.8 0.499-0.089 0.997-0.356 1.829-0.444 0.748-0.089 1.33-0.178 1.579-0.178 0.499 0 0.831 0.356 0.831 1.067 0 0.178 0 0.8-0.083 1.6-0.249 1.422-0.249 2.578-0.333 3.556z"></path>
<path d="M110.213 10.667c1.081 0 2.161 0.356 2.909 0.978 0.416 0.356 0.748 0.8 0.914 1.156 0.167 0.444 0.333 0.978 0.333 1.689v1.6c0 1.067 0.083 1.867 0.166 2.133 0.083 0.089 0.083 0.178 0.166 0.355 0.083 0 0.167 0.089 0.416 0.089s0.332 0.178 0.332 0.445c0 0.355-0.083 0.622-0.415 1.067-0.333 0.356-0.582 0.622-0.998 0.978-0.498 0.356-0.997 0.445-1.579 0.445-0.748 0-1.247-0.178-1.579-0.8-0.083-0.178-0.333-0.356-0.416-0.356s-0.332 0.089-0.498 0.178c-0.748 0.533-1.413 0.8-2.244 0.8-0.915 0-1.58-0.178-2.162-0.622-0.332-0.178-0.581-0.622-0.831-1.067-0.166-0.445-0.332-0.889-0.332-1.333 0-0.8 0.332-1.422 0.831-1.956 0.914-0.889 2.244-1.333 3.907-1.422 0.415 0 0.581 0 0.748-0.089 0.083-0.089 0.083-0.356 0.083-0.533 0-0.8-0.083-1.333-0.167-1.6-0.083-0.267-0.415-0.533-0.748-0.533-0.166 0-0.415 0.089-0.498 0.178-0.167 0.089-0.333 0.356-0.582 0.8-0.582 0.889-1.247 1.422-1.829 1.422-0.332 0-0.582-0.089-0.831-0.355s-0.332-0.444-0.332-0.889c0-0.356 0.083-0.622 0.415-0.978s0.582-0.622 0.998-0.889c1.246-0.533 2.493-0.889 3.823-0.889zM109.548 16.8c-0.332 0-0.499 0.089-0.831 0.444-0.166 0.178-0.333 0.533-0.333 0.889s0.084 0.622 0.167 0.889c0.166 0.178 0.415 0.355 0.582 0.355 0.498 0 0.831-0.444 0.831-1.422 0-0.444 0-0.622-0.083-0.8 0-0.267-0.084-0.355-0.333-0.355z"></path>
<path d="M125.008 16l-1.33 3.911c-0.333 0.978-0.582 1.689-0.997 2.4-0.333 0.622-0.749 1.067-1.081 1.511-0.914 0.889-1.912 1.333-3.158 1.333-0.998 0-1.829-0.355-2.411-0.889-0.499-0.444-0.748-0.978-0.748-1.6 0-0.533 0.166-0.978 0.499-1.422 0.332-0.355 0.748-0.533 1.247-0.533s0.914 0.178 1.080 0.533c0.083 0.089 0.166 0.356 0.333 0.445 0 0.089 0.083 0.444 0.166 0.8s0.166 0.444 0.499 0.444c0.166 0 0.415-0.089 0.498-0.355 0.083-0.178 0.166-0.445 0.166-0.8s-0.166-0.889-0.498-1.689l-2.411-5.511c-0.332-0.533-0.415-0.978-0.581-1.067-0.084-0.089-0.416-0.356-0.832-0.533-0.083-0.089-0.166-0.178-0.332-0.356s-0.083-0.356-0.083-0.444c0-0.622 0.582-1.067 1.745-1.333 0.831-0.089 1.746-0.178 2.743-0.178 0.748 0 1.247 0.089 1.579 0.178 0.499 0.178 0.831 0.533 0.831 1.067 0 0.178-0.083 0.444-0.166 0.622s-0.166 0.444-0.166 0.622c0 0.178 0 0.356 0.083 0.533s0.166 0.533 0.416 0.978c0.332 0.533 0.498 0.8 0.748 0.8 0.166 0 0.415-0.178 0.582-0.622s0.332-0.889 0.332-1.333c0-0.356-0.083-0.533-0.166-0.8-0.333-0.356-0.416-0.533-0.416-0.889s0.166-0.622 0.748-0.889c0.416-0.178 0.998-0.355 1.829-0.355 1.413 0 2.161 0.355 2.161 1.067 0 0.178-0.083 0.444-0.166 0.622-0.083 0.089-0.416 0.356-0.832 0.444-0.332 0.089-0.581 0.355-0.831 0.622-0.332 0.711-0.665 1.511-1.080 2.667z"></path>
<path d="M5.569 27.733c-0.831 0.178-1.080 0.444-1.579 0.889 0 0.8 0.083 1.422 0.083 2.311 0 0.444 0.416 1.156 1.413 0.533 0.665-0.533 0.332-3.022 1.247-4.089-0.416 0-0.748 0.267-1.164 0.356z"></path>
<path d="M33.247 17.333c-1.081 0.089-4.654 0.178-6.732-1.333 0 0.089 0.083 0.178 0.166 0.356 1.247 1.867 2.992 2.844 4.571 3.2 0.748-0.089 1.33-0.178 1.995-0.533 1.247-0.355 0.748-1.778 0-1.689z"></path>
<path d="M14.629 3.2c1.579-0.8 3.74 0.622 5.652 3.2 0.332-0.089 0.582-0.356 0.914-0.444-2.078-2.756-4.488-4.178-6.234-3.378-0.748 0.356-1.247 0.889-1.579 1.689 0.416-0.533 0.831-0.8 1.247-1.067z"></path>
<path d="M24.52 22.044c-0.332 1.422-0.997 2.489-1.912 2.933-0.499 0.178-0.997 0.178-1.496 0.089 0.831 0.355 1.496 0.355 2.244 0 0.914-0.445 1.579-1.422 1.995-2.667-0.332-0.178-0.665-0.267-0.831-0.356z"></path>
<path d="M21.195 4.533c-2.244-2.578-4.738-3.911-6.899-3.022-3.325 1.422-4.073 8.178-1.579 15.022s7.231 11.2 10.639 9.867c1.33-0.533 2.244-1.867 2.66-3.644 0.166-0.622 0.499 3.911-2.992 5.333-3.574 1.511-8.644-3.378-11.47-10.933-2.826-7.645-1.995-15.111 1.579-16.711 2.244-1.244 5.403 0.622 8.062 4.089z"></path>
<path d="M10.14 16.889c-1.745-4.889-1.912-9.778-0.582-12.622-1.579 0.978-2.826 4.978-1.579 10.4-1.912 1.155-2.826 1.511-4.821 0.978-1.579-0.444-2.161-2.133-2.244-1.956-1.413 2.933 1.745 5.155 3.574 5.067-0.166 3.111-1.995 4.8-2.826 5.956-0.997 1.6-1.247 3.645-1.413 6.4 0 0.445 0.332 1.333 1.33 0.8 0.582-0.355 0.582-2.844 1.745-3.822 0.997-0.889 1.413-0.8 3.325-1.511 2.161-0.889 4.073-2.311 4.239-4.178 0.083 0.178 0.332 0.533 0.499 0.8 2.66 4.089 4.821 3.378 4.821 3.378-2.66-2.133-4.654-5.867-6.067-9.689z"></path>
<path d="M32.249 4.444c0.166-0.622 0.499-2.133-0.166-2.667-0.332-0.178-0.748 0.8-1.745 1.422 0.499 0.089 1.413 0.533 1.912 1.244z"></path>
<path d="M33.662 20.8c-1.496 0-5.486-0.8-7.564-4-1.995-3.2 0.166-6.667 3.823-5.6 5.735 1.689 5.984-1.511 5.818-2.578-1.662-0.622-2.909-0.8-3.075-1.956-0.499-2.489-2.743-2.667-3.325-3.022-0.083-0.444-0.582-2.4-1.579-2.4-0.499 0-0.083 2.044-1.579 3.467-4.738 1.956-9.475 4.444-13.548 7.022 0.166 1.422 0.582 2.933 1.247 4.445 0.499 1.511 1.247 2.933 1.912 4.089 0.997 0 2.244 0 3.823 0.089 5.32 0.178 9.226 3.2 13.964 2.4 1.081-0.445 0.831-1.867 0.083-1.956zM30.504 6.222c0.332 0 0.416 0.178 0.416 0.533s-0.166 0.444-0.499 0.444c-0.332 0-0.416-0.178-0.416-0.533 0.166-0.178 0.332-0.444 0.499-0.444z"></path>
</symbol>
</defs>
</svg>
